<svg id="Слой_1" data-name="Слой 1" xmlns="http://www.w3.org/2000/svg" viewBox="0 0 260.3 284.14"><defs><style>.cls-1{fill:#00a69c;}.cls-2{fill:#016c62;}</style></defs><title>Logo_svg</title><path class="cls-1" d="M131.55,279c25.21-55.82,19.35-117.78,8.87-156.85L110.6,237.05l-0.4,1c-6.41,15.67-18.26,16.71-21.76,16.67-9.1-.13-16.77-6.18-20.52-16.17-4.32-11.5-9.32-30.38-14.61-50.37-1.65-6.22-3.31-12.51-4.94-18.49-8,28.79-12.6,48-15.19,60.83l73.05,42.18A47.6,47.6,0,0,0,131.55,279Z"/><path class="cls-1" d="M231.28,56.07l-77.4-44.69a47.65,47.65,0,0,0-47.65,0L28.82,56.07A47.65,47.65,0,0,0,5,97.34v89.38A47.59,47.59,0,0,0,7.4,201.6c4.63-19.1,11.15-42.92,19.77-72.31l0.09-.3c3.45-11.78,12.26-16.26,19.36-16.52,9.74-.36,18.41,6.25,22.54,17.27,4.32,11.5,9.32,30.38,14.61,50.37,1.53,5.79,3.08,11.65,4.61,17.27L115.22,93.89c4.47-15.65,15.18-21.73,23.72-22.21,10-.57,18.86,5.54,23.13,15.92,14.65,35.66,29.31,106,9,175.13L231.28,228a47.65,47.65,0,0,0,23.83-41.27V97.34A47.65,47.65,0,0,0,231.28,56.07Z"/><path class="cls-2" d="M83.79,180.06c1.53,5.79,3.08,11.65,4.61,17.27l10.53-40.58L66.14,123.58a32.71,32.71,0,0,1,3,6.1C73.5,141.18,78.5,160.07,83.79,180.06Z"/><path class="cls-2" d="M161.4,86c0.24,0.51.49,1,.71,1.57,14.67,35.71,29.35,106.16,9,175.43l60.42-34.88a47.65,47.65,0,0,0,23.83-41.27v-6.18C225.43,148.94,192,117.61,161.4,86Z"/><path class="cls-2" d="M131.51,279.12c25.29-55.86,19.43-117.91,8.94-157L110.64,237l-0.4,1C103.82,253.65,92,254.7,88.48,254.65c-9.1-.13-16.77-6.18-20.52-16.17-4.32-11.5-9.32-30.38-14.61-50.37-1.65-6.22-3.31-12.51-4.94-18.49-8,28.81-12.61,48-15.2,60.86l1.56,0.93,71.66,41.37A47.6,47.6,0,0,0,131.51,279.12Z"/></svg>