<svg fill="#fff" id="Слой_6" data-name="Слой 6" xmlns="http://www.w3.org/2000/svg" viewBox="0 0 151.6 108.72"><title>camera-01</title><circle cx="53.25" cy="52.25" r="26.02"/><path d="M98.65,0H8.86A8.86,8.86,0,0,0,0,8.86v91a8.86,8.86,0,0,0,8.86,8.86H98.65a8.86,8.86,0,0,0,8.86-8.86v-91A8.86,8.86,0,0,0,98.65,0ZM53.55,91.51A39.26,39.26,0,1,1,92.81,52.25,39.26,39.26,0,0,1,53.55,91.51Z"/><path d="M147.64,14.46c-9.78,6.61-22.09,14.83-31.37,21.12V71.3a2.4,2.4,0,0,0,.73.81c9.25,6,21,13.34,30.68,19.58a2.55,2.55,0,0,0,3.93-2.15V16.59A2.55,2.55,0,0,0,147.64,14.46Z"/></svg>