<svg id="Слой_1" data-name="Слой 1" xmlns="http://www.w3.org/2000/svg" viewBox="0 0 260.3 284.14"><defs><style>.cls-1{fill:#00a69c}.cls-2{fill:#016c62}</style></defs><path class="cls-1" d="M131.55 279c25.21-55.82 19.35-117.78 8.87-156.85l-29.82 114.9-.4 1c-6.41 15.67-18.26 16.71-21.76 16.67-9.1-.13-16.77-6.18-20.52-16.17-4.32-11.5-9.32-30.38-14.61-50.37-1.65-6.22-3.31-12.51-4.94-18.49-8 28.79-12.6 48-15.19 60.83l73.05 42.18a47.6 47.6 0 0025.32 6.3z"/><path class="cls-1" d="M231.28 56.07l-77.4-44.69a47.65 47.65 0 00-47.65 0L28.82 56.07A47.65 47.65 0 005 97.34v89.38a47.59 47.59 0 002.4 14.88c4.63-19.1 11.15-42.92 19.77-72.31l.09-.3c3.45-11.78 12.26-16.26 19.36-16.52 9.74-.36 18.41 6.25 22.54 17.27 4.32 11.5 9.32 30.38 14.61 50.37 1.53 5.79 3.08 11.65 4.61 17.27l26.84-103.49c4.47-15.65 15.18-21.73 23.72-22.21 10-.57 18.86 5.54 23.13 15.92 14.65 35.66 29.31 106 9 175.13L231.28 228a47.65 47.65 0 0023.83-41.27V97.34a47.65 47.65 0 00-23.83-41.27z"/><path class="cls-2" d="M83.79 180.06c1.53 5.79 3.08 11.65 4.61 17.27l10.53-40.58-32.79-33.17a32.71 32.71 0 013 6.1c4.36 11.5 9.36 30.39 14.65 50.38zM161.4 86c.24.51.49 1 .71 1.57 14.67 35.71 29.35 106.16 9 175.43l60.42-34.88a47.65 47.65 0 0023.83-41.27v-6.18C225.43 148.94 192 117.61 161.4 86z"/><path class="cls-2" d="M131.51 279.12c25.29-55.86 19.43-117.91 8.94-157L110.64 237l-.4 1c-6.42 15.65-18.24 16.7-21.76 16.65-9.1-.13-16.77-6.18-20.52-16.17-4.32-11.5-9.32-30.38-14.61-50.37-1.65-6.22-3.31-12.51-4.94-18.49-8 28.81-12.61 48-15.2 60.86l1.56.93 71.66 41.37a47.6 47.6 0 0025.08 6.34z"/></svg>