<svg fill="#fff" data-name="Слой 6" xmlns="http://www.w3.org/2000/svg" viewBox="0 0 151.6 108.72"><circle cx="53.25" cy="52.25" r="26.02"/><path d="M98.65 0H8.86A8.86 8.86 0 000 8.86v91a8.86 8.86 0 008.86 8.86h89.79a8.86 8.86 0 008.86-8.86v-91A8.86 8.86 0 0098.65 0zm-45.1 91.51a39.26 39.26 0 1139.26-39.26 39.26 39.26 0 01-39.26 39.26zm94.09-77.05c-9.78 6.61-22.09 14.83-31.37 21.12V71.3a2.4 2.4 0 00.73.81c9.25 6 21 13.34 30.68 19.58a2.55 2.55 0 003.93-2.15V16.59a2.55 2.55 0 00-3.97-2.13z"/></svg>